<svg>
  <svg xmlns="http://www.w3.org/2000/svg" id="right" viewBox="4 4 12 12"><path d="M11 10L7.859 6.58a.695.695 0 0 1 0-.978.68.68 0 0 1 .969 0l3.83 3.908a.697.697 0 0 1 0 .979l-3.83 3.908a.68.68 0 0 1-.969 0 .695.695 0 0 1 0-.978L11 10z"/></svg>
  <svg xmlns="http://www.w3.org/2000/svg" id="bottom" viewBox="4 4 12 12"><path transform="rotate(90, 10, 10)" d="M11 10L7.859 6.58a.695.695 0 0 1 0-.978.68.68 0 0 1 .969 0l3.83 3.908a.697.697 0 0 1 0 .979l-3.83 3.908a.68.68 0 0 1-.969 0 .695.695 0 0 1 0-.978L11 10z"/></svg>
  <svg xmlns="http://www.w3.org/2000/svg" id="left" viewBox="4 4 12 12"><path transform="rotate(180, 10, 10)" d="M11 10L7.859 6.58a.695.695 0 0 1 0-.978.68.68 0 0 1 .969 0l3.83 3.908a.697.697 0 0 1 0 .979l-3.83 3.908a.68.68 0 0 1-.969 0 .695.695 0 0 1 0-.978L11 10z"/></svg>
  <svg xmlns="http://www.w3.org/2000/svg" id="top" viewBox="4 4 12 12"><path transform="rotate(270, 10, 10)" d="M11 10L7.859 6.58a.695.695 0 0 1 0-.978.68.68 0 0 1 .969 0l3.83 3.908a.697.697 0 0 1 0 .979l-3.83 3.908a.68.68 0 0 1-.969 0 .695.695 0 0 1 0-.978L11 10z"/></svg>
</svg>
