<svg>
  <svg id="hamburger" xmlns="http://www.w3.org/2000/svg" viewBox="0 0 50 50"><path d="M8.667 15h30a1 1 0 100-2h-30a1 1 0 100 2zM8.667 37h30a1 1 0 100-2h-30a1 1 0 100 2zM8.667 26h30a1 1 0 100-2h-30a1 1 0 100 2z"/></svg>
  <svg id="home" xmlns="http://www.w3.org/2000/svg" viewBox="0 0 64 64"><path d="M40 64h12a2 2 0 0 0 2-2V34h8a2 2 0 0 0 1.414-3.414l-30-30a2 2 0 0 0-2.828 0l-30 30A2 2 0 0 0 2 34h8v28a2 2 0 0 0 2 2h12a2 2 0 0 0 2-2V48h12v14a2 2 0 0 0 2 2zM24 44a2 2 0 0 0-2 2v14h-8V32a2 2 0 0 0-2-2H6.828L32 4.829 57.172 30H52a2 2 0 0 0-2 2v28h-8V46a2 2 0 0 0-2-2H24z"/></svg>
  <svg id="profile" xmlns="http://www.w3.org/2000/svg" viewBox="0 0 20 20"><path fill-rule="evenodd" d="M134 2009c-2.217 0-4.019-1.794-4.019-4s1.802-4 4.019-4 4.019 1.794 4.019 4-1.802 4-4.019 4m3.776.673a5.978 5.978 0 0 0 2.182-5.603c-.397-2.623-2.589-4.722-5.236-5.028-3.652-.423-6.75 2.407-6.75 5.958 0 1.89.88 3.574 2.252 4.673-3.372 1.261-5.834 4.222-6.22 8.218a1.012 1.012 0 0 0 1.004 1.109.99.99 0 0 0 .993-.891c.403-4.463 3.836-7.109 7.999-7.109s7.596 2.646 7.999 7.109a.99.99 0 0 0 .993.891c.596 0 1.06-.518 1.003-1.109-.385-3.996-2.847-6.957-6.22-8.218" transform="translate(-124 -1999)"/></svg>
  <svg id="search" xmlns="http://www.w3.org/2000/svg" viewBox="0 0 101 101"><path d="M63.3 59.9c3.8-4.6 6.2-10.5 6.2-17 0-14.6-11.9-26.5-26.5-26.5S16.5 28.3 16.5 42.9 28.4 69.4 43 69.4c6.4 0 12.4-2.3 17-6.2l20.6 20.6c.5.5 1.1.7 1.7.7.6 0 1.2-.2 1.7-.7.9-.9.9-2.5 0-3.4L63.3 59.9zm-20.4 4.7c-12 0-21.7-9.7-21.7-21.7s9.7-21.7 21.7-21.7 21.7 9.7 21.7 21.7-9.7 21.7-21.7 21.7z"/></svg>
  <svg id="settings" xmlns="http://www.w3.org/2000/svg" viewBox="0 0 30 30"><path d="M26.32,12.83l-2.23-.74a9.33,9.33,0,0,0-.6-1.46l1.05-2.1a1,1,0,0,0-.19-1.15L22.62,5.65a1,1,0,0,0-1.15-.19l-2.1,1a9.33,9.33,0,0,0-1.46-.6l-.74-2.23a1,1,0,0,0-1-.68H13.78a1,1,0,0,0-.95.68l-.74,2.23a9.33,9.33,0,0,0-1.46.6l-2.1-1a1,1,0,0,0-1.15.19L5.65,7.38a1,1,0,0,0-.19,1.15l1,2.1a9.33,9.33,0,0,0-.6,1.46l-2.23.74a1,1,0,0,0-.68.95v2.44a1,1,0,0,0,.68,1l2.23.74a9.33,9.33,0,0,0,.6,1.46l-1,2.1a1,1,0,0,0,.19,1.15l1.73,1.73a1,1,0,0,0,1.15.19l2.1-1.05a9.33,9.33,0,0,0,1.46.6l.74,2.23a1,1,0,0,0,.95.68h2.44a1,1,0,0,0,1-.68l.74-2.23a9.33,9.33,0,0,0,1.46-.6l2.1,1.05a1,1,0,0,0,1.15-.19l1.73-1.73a1,1,0,0,0,.19-1.15l-1.05-2.1a9.33,9.33,0,0,0,.6-1.46l2.23-.74a1,1,0,0,0,.68-1V13.78A1,1,0,0,0,26.32,12.83ZM15,20a5,5,0,1,1,5-5A5,5,0,0,1,15,20Z"/></svg>
  <svg id="sign-in" xmlns="http://www.w3.org/2000/svg" viewBox="0 0 24 24"><path d="M4,12a1,1,0,0,0,1,1h7.59l-2.3,2.29a1,1,0,0,0,0,1.42,1,1,0,0,0,1.42,0l4-4a1,1,0,0,0,.21-.33,1,1,0,0,0,0-.76,1,1,0,0,0-.21-.33l-4-4a1,1,0,1,0-1.42,1.42L12.59,11H5A1,1,0,0,0,4,12ZM17,2H7A3,3,0,0,0,4,5V8A1,1,0,0,0,6,8V5A1,1,0,0,1,7,4H17a1,1,0,0,1,1,1V19a1,1,0,0,1-1,1H7a1,1,0,0,1-1-1V16a1,1,0,0,0-2,0v3a3,3,0,0,0,3,3H17a3,3,0,0,0,3-3V5A3,3,0,0,0,17,2Z"/></svg><svg id="sign-out" xmlns="http://www.w3.org/2000/svg" viewBox="-1.5 0 30.5 32"><path d="M29.71,16.71l-4,4-1.42-1.42L26.59,17H21a3,3,0,0,1-3-3V5a1,1,0,0,0-1-1H5A1,1,0,0,0,4,5V27a1,1,0,0,0,1,1H17a1,1,0,0,0,1-1V20h2v7a3,3,0,0,1-3,3H5a3,3,0,0,1-3-3V5A3,3,0,0,1,5,2H17a3,3,0,0,1,3,3v9a1,1,0,0,0,1,1h5.6l-2.26-2.28,1.42-1.41,3.95,4A1,1,0,0,1,29.71,16.71Z" data-name="44 Log out, Basic, Essential"/></svg>
  <svg id="sign-out" xmlns="http://www.w3.org/2000/svg" viewBox="-1.5 0 30.5 32"><path d="M29.71,16.71l-4,4-1.42-1.42L26.59,17H21a3,3,0,0,1-3-3V5a1,1,0,0,0-1-1H5A1,1,0,0,0,4,5V27a1,1,0,0,0,1,1H17a1,1,0,0,0,1-1V20h2v7a3,3,0,0,1-3,3H5a3,3,0,0,1-3-3V5A3,3,0,0,1,5,2H17a3,3,0,0,1,3,3v9a1,1,0,0,0,1,1h5.6l-2.26-2.28,1.42-1.41,3.95,4A1,1,0,0,1,29.71,16.71Z" data-name="44 Log out, Basic, Essential"/></svg>
  <svg id="browse" xmlns="http://www.w3.org/2000/svg" viewBox="70 70 371.43 371.43"><g transform="translate(19825 3746)"><rect width="512" height="512" fill="none" rx="50" transform="translate(-19825 -3746)"/><g transform="translate(-19755 -3686.068)"><g data-name="Group 29798"><g data-name="Group 29797"><path d="M312.273,136.8l-4.024-1.009a47.259,47.259,0,0,0-50.843,19.741,6.191,6.191,0,0,0,10.313,6.841A34.921,34.921,0,0,1,305.235,147.8l4.03,1.009a6.19,6.19,0,0,0,3.009-12.01Z" data-name="Path 12184" transform="translate(-58.011 -20.427)"/></g></g><g data-name="Group 29800"><g data-name="Group 29799"><path d="M381.657,229.643a6.191,6.191,0,0,0-4.746.349h.019a101.6,101.6,0,0,1-90.852,0,6.19,6.19,0,0,0-8.667,7.478l5.912,17.8a50.706,50.706,0,0,0,96.349,0l5.906-17.8A6.191,6.191,0,0,0,381.657,229.643Zm-13.728,21.738a38.332,38.332,0,0,1-72.85,0l-1.591-4.8a114.4,114.4,0,0,0,76.025,0Z" data-name="Path 12185" transform="translate(-62.676 -41.903)"/></g></g><g data-name="Group 29802"><g data-name="Group 29801"><path d="M430.414,158.745c-.064-.1-.131-.2-.2-.3a47.283,47.283,0,0,0-50.83-19.723l-4.036,1.015a6.19,6.19,0,0,0,3.009,11.985l4.043-1.009a34.914,34.914,0,0,1,37.5,14.572,6.191,6.191,0,0,0,10.514-6.539Z" data-name="Path 12186" transform="translate(-83.924 -21.091)"/></g></g><g data-name="Group 29804"><g data-name="Group 29803"><path d="M367.2,60a311.647,311.647,0,0,0-196.752,0,6.19,6.19,0,0,0-4.222,5.869v46.107A296.987,296.987,0,0,1,8.153,103.565,6.191,6.191,0,0,0,0,109.433v90.883A176.43,176.43,0,0,0,58.76,331.777a60.946,60.946,0,0,0,78.848,2.049L139.5,332.3a174.306,174.306,0,0,0,55.622-78.675,174.578,174.578,0,0,0,29.863,34.815,60.939,60.939,0,0,0,78.842,2.049l1.894-1.523a175.316,175.316,0,0,0,65.706-137.342V65.871A6.19,6.19,0,0,0,367.2,60ZM131.74,322.665l-1.857,1.523a48.583,48.583,0,0,1-62.877-1.653A164.01,164.01,0,0,1,12.381,200.316V117.908a309.556,309.556,0,0,0,153.846,6.81v32.29q0,5.429.34,10.858c.074,1.2.235,2.39.334,3.59.2,2.4.384,4.81.681,7.206.186,1.455.452,2.891.669,4.333.322,2.13.619,4.265,1.015,6.382.285,1.535.662,3.058.99,4.587.433,2.006.836,4.018,1.337,6,.4,1.585.885,3.151,1.325,4.723.539,1.907,1.052,3.82,1.653,5.708.508,1.6,1.09,3.17,1.64,4.748.619,1.857,1.269,3.683,1.975,5.5.619,1.585,1.294,3.139,1.95,4.7.749,1.783,1.48,3.566,2.284,5.318.718,1.566,1.5,3.1,2.272,4.649.662,1.337,1.238,2.7,1.962,4.024A162.382,162.382,0,0,1,131.74,322.665ZM359.048,151.628a163.065,163.065,0,0,1-61.082,127.7l-1.894,1.523a48.577,48.577,0,0,1-62.84-1.653A162.987,162.987,0,0,1,198.715,235.6,164.958,164.958,0,0,1,179.9,177.4a163.18,163.18,0,0,1-1.288-20.429V70.365a299.348,299.348,0,0,1,180.44,0Z" data-name="Path 12187"/></g></g><g data-name="Group 29806"><g data-name="Group 29805"><path d="M81.784,204.958A6.2,6.2,0,0,0,73.2,206.7l-2.687,4.067A38.734,38.734,0,0,1,38.19,228.148a6.191,6.191,0,0,0,0,12.381,51.1,51.1,0,0,0,42.64-22.917l2.693-4.067A6.2,6.2,0,0,0,81.784,204.958Z" data-name="Path 12188" transform="translate(-7.238 -36.158)"/></g></g><g data-name="Group 29808"><g data-name="Group 29807"><path d="M154.11,319.737h-.031a69.543,69.543,0,0,0-77.7,0A21.629,21.629,0,0,0,98.031,357.1a38.548,38.548,0,0,1,34.413,0,21.63,21.63,0,0,0,21.667-37.36ZM149.746,342.9a9.193,9.193,0,0,1-11.762,3.139,50.958,50.958,0,0,0-45.537,0A9.175,9.175,0,0,1,80.685,342.9a9.286,9.286,0,0,1,2.557-12.87,57.213,57.213,0,0,1,63.911,0A9.286,9.286,0,0,1,149.746,342.9Z" data-name="Path 12189" transform="translate(-15.109 -59.67)"/></g></g><g data-name="Group 29810"><g data-name="Group 29809"><path d="M200.112,260.556l-12.09-28.2-.062-.105a6.141,6.141,0,0,0-5.77-4.1,38.714,38.714,0,0,1-32.314-17.383l-2.7-4.067a6.192,6.192,0,0,0-10.32,6.847l2.7,4.067A51.034,51.034,0,0,0,173.5,239.7l-8.945,20.856a19.345,19.345,0,1,0,35.558,0Zm-11.966,11.471a7.144,7.144,0,0,1-11.62,0,6.859,6.859,0,0,1-.619-6.574l6.4-14.938,6.4,14.938A6.839,6.839,0,0,1,188.146,272.027Z" data-name="Path 12190" transform="translate(-30.722 -36.159)"/></g></g></g></g></svg>
</svg>
