<svg id="trash-can" xmlns="http://www.w3.org/2000/svg" viewBox="0 0 512 512"><path fill="#231f20" d="M309.36,428.79H202.64c-19.9,0-36.51-14.3-37.82-32.56L150.43,195.78a8,8,0,0,1,16-1.15l14.39,200.45c.71,9.93,10.31,17.71,21.86,17.71H309.36c11.55,0,21.15-7.78,21.86-17.7l14.39-200.46a8,8,0,0,1,16,1.15L347.18,396.23C345.87,414.49,329.26,428.79,309.36,428.79Z"/><path fill="#231f20" d="M371.28,203.2H353.59a8,8,0,0,1,0-16h17.69c3.19,0,6.76-4.88,6.76-11.41V158c0-6.53-3.57-11.41-6.76-11.41H140.72c-3.19,0-6.76,4.88-6.76,11.41v17.76c0,6.53,3.57,11.41,6.76,11.41h17.69a8,8,0,1,1,0,16H140.72c-12.76,0-22.76-12-22.76-27.41V158c0-15.37,10-27.41,22.76-27.41H371.28c12.76,0,22.76,12,22.76,27.41v17.76C394,191.16,384,203.2,371.28,203.2Z"/><path fill="#231f20" d="M295.76 146.62H215.47a8 8 0 0 1-8-8V92.92a9.73 9.73 0 0 1 9.72-9.71H294a9.73 9.73 0 0 1 9.72 9.71v45.7A8 8 0 0 1 295.76 146.62zm-72.29-16h64.29V99.21H223.47zM304.26 196H206.35a8 8 0 0 1 0-16h97.91a8 8 0 0 1 0 16zM256 378.71a8 8 0 0 1-8-8V253a8 8 0 0 1 16 0V370.71A8 8 0 0 1 256 378.71zM215.46 378.71a8 8 0 0 1-7.94-7.1L194.21 253.84a8 8 0 0 1 15.9-1.79l13.31 117.76a8 8 0 0 1-7 8.85C216.07 378.69 215.76 378.71 215.46 378.71zM296 378.71c-.3 0-.6 0-.91 0a8 8 0 0 1-7.05-8.85l13.31-117.76a8 8 0 0 1 15.9 1.79L304 371.61A8 8 0 0 1 296 378.71z"/></svg>
